# xmcd
#
# Track frame offsets:
#	150
#	10978
#	19228
#	32801
#
# Disc length: 617 seconds
#
# Revision: 4
# Processed by: cddbd v1.5.2PL0 Copyright (c) Steve Scherf et al.
# Submitted via: VUPlayer 2.49
#
DISCID=28026704
DTITLE=Various Artist - M&M's Sings the Blues Volume 2
DYEAR=1997
DGENRE=Oldies
TTITLE0=Fats Domino - Blue Monday
TTITLE1=Fats Domino - I'm Ready
TTITLE2=Fats Domino - Blueberry Hill
TTITLE3=Percy Sledge - When A Man Loves A Women
EXTD=
EXTT0=
EXTT1=
EXTT2=
EXTT3=
PLAYORDER=
